<?xml version="1.0" encoding="UTF-8"?>
<svg width="200px" height="200px" viewBox="0 0 200 200" version="1.1" xmlns="http://www.w3.org/2000/svg" xmlns:xlink="http://www.w3.org/1999/xlink">
    <!-- Generator: Sketch 44.1 (41455) - http://www.bohemiancoding.com/sketch -->
    <title>lb46</title>
    <desc>Created with Sketch.</desc>
    <defs>
        <rect id="path-1" x="0" y="0" width="200" height="200"></rect>
    </defs>
    <g id="Page-1" stroke="none" stroke-width="1" fill="none" fill-rule="evenodd">
        <g id="六六脑-云平台V2.0-量表图标" transform="translate(-500.000000, -3086.000000)">
            <g id="main" transform="translate(230.000000, 80.000000)">
                <g id="lb46" transform="translate(270.000000, 3006.000000)">
                    <mask id="mask-2" fill="white">
                        <use xlink:href="#path-1"></use>
                    </mask>
                    <use id="Mask" fill="#374D6C" xlink:href="#path-1"></use>
                    <path d="M75,35 L75,34 L75,34 C75,31.790861 76.790861,30 79,30 L121,30 C123.209139,30 125,31.790861 125,34 L125,35 L142,35 C149.179702,35 155,40.8202983 155,48 L155,157 C155,164.179702 149.179702,170 142,170 L59,170 C51.8202983,170 46,164.179702 46,157 L46,48 C46,40.8202983 51.8202983,35 59,35 L75,35 Z M75,45 L59,45 C57.3431458,45 56,46.3431458 56,48 L56,157 C56,158.656854 57.3431458,160 59,160 L142,160 C143.656854,160 145,158.656854 145,157 L145,48 C145,46.3431458 143.656854,45 142,45 L125,45 L125,46 C125,48.209139 123.209139,50 121,50 L79,50 C76.790861,50 75,48.209139 75,46 L75,45 Z M72,63 L88,63 C90.209139,63 92,64.790861 92,67 L92,83 C92,85.209139 90.209139,87 88,87 L72,87 C69.790861,87 68,85.209139 68,83 L68,67 C68,64.790861 69.790861,63 72,63 Z M107,60 L128,60 C130.761424,60 133,62.2385763 133,65 C133,67.7614237 130.761424,70 128,70 L107,70 C104.238576,70 102,67.7614237 102,65 C102,62.2385763 104.238576,60 107,60 Z M107,80 L128,80 C130.761424,80 133,82.2385763 133,85 C133,87.7614237 130.761424,90 128,90 L107,90 C104.238576,90 102,87.7614237 102,85 C102,82.2385763 104.238576,80 107,80 Z M73,100 L128,100 C130.761424,100 133,102.238576 133,105 C133,107.761424 130.761424,110 128,110 L73,110 C70.2385763,110 68,107.761424 68,105 C68,102.238576 70.2385763,100 73,100 Z M73,120 L128,120 C130.761424,120 133,122.238576 133,125 C133,127.761424 130.761424,130 128,130 L73,130 C70.2385763,130 68,127.761424 68,125 C68,122.238576 70.2385763,120 73,120 Z M73,140 L103,140 C105.761424,140 108,142.238576 108,145 C108,147.761424 105.761424,150 103,150 L73,150 C70.2385763,150 68,147.761424 68,145 C68,142.238576 70.2385763,140 73,140 Z" id="Combined-Shape" fill-opacity="0.1" fill="#FFFFFF" fill-rule="nonzero" mask="url(#mask-2)"></path>
                    <text id="克兰赛孤独症-行为量表" mask="url(#mask-2)" font-family="PingFangTC-Semibold, PingFang TC" font-size="20" font-weight="500" fill="#FFFFFF">
                        <tspan x="40" y="93">克兰赛孤独症</tspan>
                        <tspan x="60" y="121">行为量表</tspan>
                    </text>
                </g>
            </g>
        </g>
    </g>
</svg>